# xmcd
#
# Track frame offsets:
#	150
#	19728
#	37976
#	54237
#	71027
#	89635
#	108492
#	127015
#	143888
#	162546
#	179504
#	199413
#	220596
#	240887
#	260120
#	277067
#
# Disc length: 3947 seconds
#
# Revision: 1
# Processed by: cddbd v1.5.1PL2 Copyright (c) Steve Scherf et al.
# Submitted via: EasyCDDAExtractor 9.0.0.1
#
DISCID=f50f6910
DTITLE=Various Artist - HKG Romantic Songs
DYEAR=1900
DGENRE=Blues
TTITLE0=Still of the night
TTITLE1=Kisses in the wind
TTITLE2=Fantasy
TTITLE3=Caravan of life
TTITLE4=Say you'll be mine
TTITLE5=Dont know why
TTITLE6=Island princes
TTITLE7=Its just not the same
TTITLE8=Keep on loving you
TTITLE9=Alone
TTITLE10=Kiss and say goodbye
TTITLE11=You are the one
TTITLE12=Cant let go
TTITLE13=There's only you in my heart
TTITLE14=I'm sorry love
TTITLE15=Sad without you
EXTD=
EXTT0=
EXTT1=
EXTT2=
EXTT3=
EXTT4=
EXTT5=
EXTT6=
EXTT7=
EXTT8=
EXTT9=
EXTT10=
EXTT11=
EXTT12=
EXTT13=
EXTT14=
EXTT15=
PLAYORDER=
